# xmcd CD database file
#
# Track frame offsets:
#	183
#	13655
#	34595
#	45880
#	59735
#	76333
#	92633
#	105243
#	128358
#	144108
#	157220
#	168685
#	181760
#	193595
#	205658
#	216193
#	226910
#	238828
#	253890
#	267035
#	280100
#
# Disc length: 3916 seconds
#
# Revision: 3
# Processed by: cddbd v1.5.2PL0 Copyright (c) Steve Scherf et al.
# Submitted via: CDex 1.51
#
DISCID=160f4a15
DTITLE=Memphis Slim - You got to help me some
DYEAR=1940
DGENRE=Blues
TTITLE0=Pinetop's blues
TTITLE1=Rock me baby
TTITLE2=Rack 'em back Jack
TTITLE3=Motherless child
TTITLE4=Teasing the blues
TTITLE5=Letter home
TTITLE6=Sassy Mae
TTITLE7=The blacks
TTITLE8=Joogie boogie
TTITLE9=Little peace of mind
TTITLE10=Blues
TTITLE11=Blue and lonesome
TTITLE12=Two of a kind
TTITLE13=Mother earth
TTITLE14=Slim was just kiddin
TTITLE15=Having fun
TTITLE16=Jive time bounce
TTITLE17=Beer drinking woman
TTITLE18=You got to help me some
TTITLE19=Empty room blues
TTITLE20=Slim's blues
EXTD=YEAR: 1940
EXTT0=
EXTT1=
EXTT2=
EXTT3=
EXTT4=
EXTT5=
EXTT6=
EXTT7=
EXTT8=
EXTT9=
EXTT10=
EXTT11=
EXTT12=
EXTT13=
EXTT14=
EXTT15=
EXTT16=
EXTT17=
EXTT18=
EXTT19=
EXTT20=
PLAYORDER=
